<svg width="16" height="16" viewBox="0 0 16 16" fill="none" xmlns="http://www.w3.org/2000/svg">
<path fill-rule="evenodd" clip-rule="evenodd" d="M5.27093 0.34404C5.7399 0.149786 6.24254 0.0498047 6.75015 0.0498047C7.25776 0.0498047 7.7604 0.149786 8.22937 0.34404C8.69834 0.538293 9.12446 0.823016 9.48339 1.18195C9.84232 1.54088 10.127 1.967 10.3213 2.43597C10.5156 2.90494 10.6155 3.40758 10.6155 3.91519C10.6155 4.4228 10.5156 4.92544 10.3213 5.39441C10.127 5.86338 9.84232 6.28949 9.48339 6.64843C9.12446 7.00736 8.69834 7.29208 8.22937 7.48634C7.7604 7.68059 7.25776 7.78057 6.75015 7.78057C6.24254 7.78057 5.7399 7.68059 5.27093 7.48634C4.80196 7.29209 4.37584 7.00736 4.01691 6.64843C3.65798 6.28949 3.37325 5.86338 3.179 5.39441C2.98475 4.92544 2.88477 4.4228 2.88477 3.91519C2.88477 3.40758 2.98475 2.90494 3.179 2.43597C3.37325 1.967 3.65798 1.54088 4.01691 1.18195C4.37584 0.823015 4.80196 0.538293 5.27093 0.34404ZM6.75015 1.5498C6.43952 1.5498 6.13194 1.61099 5.84496 1.72986C5.55797 1.84873 5.29722 2.02296 5.07757 2.24261C4.85792 2.46226 4.68369 2.72301 4.56482 3.01C4.44595 3.29698 4.38477 3.60456 4.38477 3.91519C4.38477 4.22582 4.44595 4.5334 4.56482 4.82038C4.68369 5.10736 4.85792 5.36812 5.07757 5.58777C5.29722 5.80742 5.55798 5.98165 5.84496 6.10052C6.13194 6.21939 6.43952 6.28057 6.75015 6.28057C7.06078 6.28057 7.36836 6.21939 7.65534 6.10052C7.94232 5.98165 8.20308 5.80742 8.42273 5.58777C8.64238 5.36812 8.81661 5.10736 8.93548 4.82038C9.05435 4.5334 9.11553 4.22582 9.11553 3.91519C9.11553 3.60456 9.05435 3.29698 8.93548 3.01C8.81661 2.72301 8.64238 2.46226 8.42273 2.24261C8.20308 2.02296 7.94233 1.84873 7.65534 1.72986C7.36836 1.61099 7.06078 1.5498 6.75015 1.5498Z" fill="#676879"/>
<path d="M6.33935 8.73118C6.3512 8.73071 6.36306 8.73047 6.37491 8.73047H7.12469C7.13838 8.73047 7.15198 8.73078 7.1655 8.73139C7.7888 8.75663 8.40239 8.85952 8.98878 9.03527C9.49127 9.18587 9.49635 9.8685 9.09422 10.2054C8.90633 10.3628 8.6558 10.4142 8.42021 10.3465C7.99646 10.2249 7.55476 10.1529 7.10634 10.1337H6.39335C5.53853 10.1703 4.70811 10.3988 3.97999 10.7977C3.24701 11.1992 2.64204 11.7602 2.22255 12.4273C1.80542 13.0907 1.58548 13.8372 1.58328 14.5965H7.12469L7.12963 14.5965H7.21466C7.47166 14.5965 7.69353 14.7699 7.78802 15.0089C7.96102 15.4465 7.67351 15.9997 7.203 15.9997H7.12509L7.12014 15.9997H0.791633C0.354427 15.9997 2.29349e-07 15.6856 2.29349e-07 15.2981V14.6097C-0.000297202 13.6068 0.288702 12.6203 0.83955 11.7443C1.39044 10.8682 2.18491 10.1314 3.14751 9.60407C4.1101 9.07671 5.20884 8.77623 6.33935 8.73118Z" fill="#676879"/>
<path d="M12.7002 9.5C13.1144 9.5 13.4502 9.83579 13.4502 10.25V12H15.2002C15.6144 12 15.9502 12.3358 15.9502 12.75C15.9502 13.1642 15.6144 13.5 15.2002 13.5H13.4502V15.25C13.4502 15.6642 13.1144 16 12.7002 16C12.286 16 11.9502 15.6642 11.9502 15.25V13.5H10.2002C9.78598 13.5 9.4502 13.1642 9.4502 12.75C9.4502 12.3358 9.78598 12 10.2002 12H11.9502V10.25C11.9502 9.83579 12.286 9.5 12.7002 9.5Z" fill="#676879"/>
</svg>
